<?xml version="1.0" standalone="no"?>
<!DOCTYPE svg PUBLIC "-//W3C//DTD SVG 20010904//EN"
 "http://www.w3.org/TR/2001/REC-SVG-20010904/DTD/svg10.dtd">
<svg version="1.0" xmlns="http://www.w3.org/2000/svg"
 width="1000.000000pt" height="1000.000000pt" viewBox="0 0 1000.000000 1000.000000"
 preserveAspectRatio="xMidYMid meet">
<metadata>
Created by potrace 1.14, written by Peter Selinger 2001-2017
</metadata>
<g transform="translate(0.000000,1000.000000) scale(0.100000,-0.100000)"
fill="#000000" stroke="none">
<path d="M4730 9904 c-19 -2 -102 -11 -185 -20 -667 -69 -1242 -235 -1807
-520 -969 -489 -1743 -1263 -2220 -2219 -263 -528 -417 -1054 -483 -1650 -34
-305 -29 -825 10 -1128 87 -660 307 -1291 644 -1847 120 -199 242 -379 313
-465 9 -11 48 -60 88 -110 39 -49 97 -119 128 -155 58 -68 315 -326 392 -395
138 -124 180 -156 191 -149 7 4 9 3 6 -3 -6 -10 4 -21 68 -68 22 -16 42 -32
45 -35 20 -22 141 -106 174 -121 23 -10 34 -19 26 -19 -18 0 284 -201 326
-216 10 -4 32 -16 48 -27 25 -18 37 -22 79 -26 5 -1 6 -5 3 -10 -9 -15 162
-103 187 -97 12 3 15 3 7 -1 -16 -7 37 -35 217 -114 69 -30 118 -46 129 -42
11 4 15 2 11 -4 -10 -16 332 -143 384 -143 11 0 17 -4 14 -10 -4 -7 3 -8 21
-4 21 5 25 4 19 -6 -6 -10 -1 -12 19 -8 15 3 24 3 21 0 -6 -7 109 -38 180 -48
60 -9 51 -7 99 -28 23 -10 49 -15 65 -11 21 4 23 3 11 -6 -12 -8 -8 -9 18 -5
23 4 31 2 26 -6 -5 -8 3 -9 29 -5 21 3 37 2 37 -2 0 -14 185 -45 272 -45 48
-1 80 -4 70 -8 -10 -4 3 -7 33 -9 28 -1 59 -3 70 -4 142 -21 277 -26 580 -22
307 4 355 7 500 31 88 14 187 31 220 36 58 10 139 24 200 36 17 3 37 10 46 15
9 4 20 5 25 1 5 -4 2 2 -6 12 -14 18 -14 19 8 7 19 -10 34 -9 80 4 31 10 66
19 77 21 59 11 75 16 70 24 -3 4 4 6 15 3 11 -3 20 0 20 6 0 5 6 8 13 5 8 -3
45 6 83 20 38 13 89 30 113 36 33 9 41 14 30 21 -10 7 -5 8 14 3 17 -4 27 -2
27 6 0 6 3 9 8 7 13 -8 137 39 135 51 -2 6 4 9 12 6 26 -10 419 162 408 179
-3 6 -1 7 5 3 22 -14 357 168 345 187 -3 6 -1 7 5 3 15 -9 105 40 187 101 6 5
44 30 85 57 135 88 261 187 254 198 -4 6 -3 8 3 5 6 -4 26 6 45 21 19 15 50
38 68 52 18 14 38 30 44 35 6 6 45 39 86 74 154 133 484 478 507 529 6 15 13
25 16 22 11 -12 195 226 321 415 176 264 260 414 391 700 168 367 296 780 355
1149 11 67 24 146 30 176 46 253 60 858 27 1140 -41 347 -112 689 -202 970
-20 63 -41 130 -47 149 -38 133 -243 582 -334 732 -19 31 -34 59 -34 62 0 18
-265 426 -307 472 -10 11 -34 43 -53 71 -113 164 -452 526 -677 722 -95 82
-255 210 -368 294 -92 68 -308 208 -321 208 -4 0 -21 11 -38 24 -34 25 -234
135 -391 213 -160 80 -523 224 -675 268 -415 118 -604 157 -1037 211 -121 15
-667 28 -753 18z m1460 -868 c212 -46 682 -243 973 -407 134 -75 447 -286 555
-372 308 -247 607 -562 827 -872 398 -560 654 -1233 742 -1955 21 -177 24
-707 5 -895 -51 -491 -196 -984 -423 -1435 -78 -156 -128 -235 -149 -235 -11
0 -17 23 -26 90 -30 240 -172 486 -364 631 -51 39 -211 114 -242 114 -15 0
-30 5 -34 11 -3 6 -17 8 -31 4 -14 -3 -22 -2 -19 3 10 16 -224 12 -279 -5
-200 -60 -385 -202 -467 -359 -81 -155 -118 -359 -89 -493 33 -157 164 -312
307 -362 167 -60 342 -19 473 112 61 61 113 161 115 223 0 24 4 42 9 39 4 -2
7 24 7 59 0 55 -4 70 -30 105 -17 22 -41 48 -55 57 -49 32 -144 13 -186 -38
-10 -11 -25 -53 -34 -91 -8 -39 -24 -85 -35 -103 -42 -68 -132 -92 -197 -52
-120 73 -79 329 79 482 50 49 103 84 143 93 6 2 30 8 55 15 25 7 79 13 120 14
67 1 84 -3 141 -31 107 -53 212 -174 264 -303 38 -95 48 -179 42 -349 -5 -139
-9 -167 -37 -251 -85 -257 -234 -477 -434 -639 -70 -56 -208 -151 -220 -151
-4 0 -23 -10 -44 -23 -58 -36 -199 -93 -287 -116 -128 -33 -191 -41 -340 -47
-77 -2 -157 -6 -178 -8 -20 -2 -35 0 -31 5 3 5 -7 9 -23 9 -46 0 -194 29 -263
51 -35 11 -79 21 -96 22 -18 1 -30 4 -29 7 6 10 -145 61 -157 54 -7 -4 -10 -3
-6 1 5 5 -33 28 -82 51 -50 24 -93 50 -96 58 -3 9 3 31 15 49 11 19 18 37 14
40 -3 4 -2 7 4 7 6 0 23 19 39 42 16 24 32 45 35 48 3 3 12 17 20 31 8 15 33
58 55 95 36 59 64 108 105 184 85 154 246 590 232 627 -4 10 -2 14 4 10 16
-10 80 213 128 443 49 237 93 576 110 845 3 50 8 104 10 120 2 17 7 113 11
215 3 102 8 199 10 215 5 46 5 1048 -1 1108 -2 28 -7 122 -10 207 -14 440 -81
1089 -146 1415 -78 387 -201 772 -338 1050 -95 193 -141 269 -237 398 -46 60
-74 107 -74 122 0 22 4 25 38 25 20 0 66 -7 102 -14z m-1034 -77 c154 -28 279
-104 381 -233 413 -515 621 -1376 702 -2906 15 -268 5 -1453 -13 -1720 -39
-560 -74 -840 -146 -1150 -76 -327 -150 -537 -276 -779 -71 -137 -97 -171
-128 -171 -12 0 -56 27 -98 61 -63 49 -78 65 -78 87 0 24 19 71 20 48 0 -9 82
98 115 151 103 164 116 187 110 201 -3 9 -3 13 1 9 10 -9 46 62 38 74 -3 5 -1
9 4 9 13 0 46 128 68 255 27 165 1 385 -61 505 -107 206 -391 424 -580 444
-11 1 -26 6 -33 10 -6 4 -67 9 -134 12 -102 4 -136 1 -202 -16 -234 -60 -419
-261 -421 -457 0 -72 21 -102 91 -129 85 -32 145 -3 191 93 28 59 107 144 151
164 17 7 29 16 27 19 -3 5 21 7 130 10 262 6 499 -172 546 -408 32 -167 -37
-405 -179 -621 -54 -82 -141 -171 -166 -171 -11 0 -88 34 -170 75 -82 41 -152
72 -157 70 -4 -3 -9 -2 -11 3 -4 10 -138 58 -188 68 -19 3 -40 10 -45 14 -10
8 -61 18 -130 25 -16 1 -39 7 -50 11 -11 5 -83 8 -160 8 -138 -2 -196 -11
-363 -58 -30 -8 -59 -13 -66 -10 -15 6 -41 57 -50 102 -4 18 -12 30 -17 27 -5
-4 -6 0 -3 8 3 8 -2 42 -11 75 -46 178 -96 573 -119 937 -3 44 -10 150 -16
235 -6 85 -15 236 -20 335 -6 99 -15 257 -20 350 -18 291 -16 1115 3 1395 47
684 96 1030 217 1512 147 582 329 935 610 1181 104 90 176 138 281 183 156 68
291 88 425 63z m-1592 -45 c29 -11 17 -50 -50 -155 -199 -313 -322 -567 -419
-863 -28 -86 -92 -358 -165 -701 -46 -217 -107 -675 -124 -935 -3 -41 -10
-140 -16 -220 -53 -762 -35 -1693 45 -2205 7 -49 21 -137 30 -195 73 -466 226
-967 380 -1244 71 -126 87 -154 155 -251 57 -81 61 -90 55 -125 -31 -202 -7
-380 71 -524 40 -74 146 -190 229 -250 53 -38 204 -116 226 -116 7 0 20 -6 28
-14 9 -8 30 -16 46 -18 17 -2 33 -7 36 -12 4 -4 19 -9 35 -11 16 -1 36 -5 44
-8 142 -50 524 -64 705 -26 112 23 223 55 273 76 18 8 42 16 53 18 75 15 401
203 560 324 30 23 64 41 77 41 12 0 71 -25 131 -55 117 -59 340 -149 349 -140
3 2 10 1 16 -4 21 -17 193 -62 211 -55 11 5 16 4 12 -3 -4 -6 50 -18 146 -32
168 -24 187 -29 187 -40 0 -23 -347 -167 -565 -235 -230 -72 -614 -157 -815
-181 -343 -41 -926 -27 -1230 29 -225 42 -512 112 -640 156 -325 112 -568 219
-825 365 -130 73 -314 192 -410 266 -33 25 -67 50 -76 55 -18 10 -79 61 -202
168 -80 69 -311 297 -357 352 -14 16 -47 56 -75 89 -27 33 -52 62 -55 65 -34
31 -187 242 -307 424 -147 224 -383 731 -443 951 -5 17 -24 86 -44 154 -62
216 -105 445 -135 731 -24 216 -22 651 2 855 44 374 108 643 232 985 90 247
178 428 338 700 98 166 213 328 370 524 97 120 408 434 532 538 344 287 742
521 1185 696 176 70 166 67 194 56z m-219 -6564 c3 -5 1 -10 -4 -10 -6 0 -11
5 -11 10 0 6 2 10 4 10 3 0 8 -4 11 -10z m1160 -56 c161 -30 415 -131 415
-166 0 -11 -57 -48 -102 -65 -63 -24 -318 -23 -413 1 -143 37 -315 144 -315
196 0 23 38 36 135 49 82 10 168 5 280 -15z m834 -436 c131 -99 154 -122 146
-147 -9 -29 -129 -137 -214 -193 -205 -134 -372 -177 -681 -178 -257 0 -431
36 -590 120 -114 61 -240 207 -240 278 0 26 34 30 65 8 11 -7 38 -19 60 -26
22 -7 63 -23 90 -35 92 -42 266 -68 453 -67 85 0 117 4 123 14 5 7 9 8 9 3 0
-6 17 -9 40 -7 22 2 38 8 35 12 -3 5 4 6 14 3 69 -18 402 103 511 185 31 24
109 70 119 72 2 0 29 -19 60 -42z m-494 -128 c3 -5 -1 -10 -9 -10 -9 0 -16 5
-16 10 0 6 4 10 9 10 6 0 13 -4 16 -10z m3575 -184 c0 -3 -4 -8 -10 -11 -5 -3
-10 -1 -10 4 0 6 5 11 10 11 6 0 10 -2 10 -4z m-4575 -1086 c-3 -5 -11 -10
-16 -10 -6 0 -7 5 -4 10 3 6 11 10 16 10 6 0 7 -4 4 -10z m215 -90 c0 -5 -5
-10 -11 -10 -5 0 -7 5 -4 10 3 6 8 10 11 10 2 0 4 -4 4 -10z m100 -94 c0 -11
-19 -15 -25 -6 -3 5 1 10 9 10 9 0 16 -2 16 -4z m1380 -126 c0 -5 -2 -10 -4
-10 -3 0 -8 5 -11 10 -3 6 -1 10 4 10 6 0 11 -4 11 -10z"/>
</g>
</svg>
